<svg xmlns="http://www.w3.org/2000/svg" width="168" height="126">
    <path fill="#33363B" fill-rule="evenodd" d="M166.947 55.42c-.992.077-1.984.175-2.977.27.04.568.074 1.144.115 1.706l.109 1.503a1.151 1.151 0 0 1-1.144 1.235 1.148 1.148 0 0 1-1.14-1.071l-.109-1.497c-.04-.55-.073-1.114-.112-1.67-1.199.115-2.398.232-3.597.325l-.09.003c-.592 0-1.094-.46-1.14-1.065a1.15 1.15 0 0 1 1.054-1.238c1.206-.093 2.412-.211 3.618-.327a77.023 77.023 0 0 1-.133-4.241c0-.637.512-1.153 1.145-1.153.632 0 1.144.516 1.144 1.153 0 1.333.051 2.685.126 4.035.985-.093 1.97-.191 2.955-.267A1.155 1.155 0 0 1 168 54.182c.05.635-.422 1.19-1.053 1.238zM18.706 110.982c-.379-.007-.754-.014-1.129-.014-.946 0-2.067.039-3.218.329a1.147 1.147 0 0 1-1.389-.839 1.152 1.152 0 0 1 .833-1.398c1.392-.351 2.689-.398 3.774-.398.387 0 .776.007 1.168.013.388.007.779.014 1.177.014.633 0 1.145.516 1.145 1.153s-.512 1.153-1.145 1.153c-.411 0-.816-.007-1.216-.013zm12.341-4.716c-.645-.13-1.374-.188-2.363-.188-.434 0-.868.011-1.296.021-.438.011-.87.021-1.291.021a1.15 1.15 0 0 1-1.145-1.153 1.15 1.15 0 0 1 1.145-1.153c.404 0 .817-.01 1.235-.02.447-.011.899-.022 1.352-.022 1.146 0 2.013.071 2.812.232.62.125 1.022.733.898 1.357a1.147 1.147 0 0 1-1.347.905zm4.845 3.836a1.147 1.147 0 0 1-1.373.864c-1.265-.294-2.609-.334-3.757-.334-.448 0-.895.007-1.338.014-.446.006-.888.013-1.324.013a1.15 1.15 0 0 1-1.145-1.153 1.15 1.15 0 0 1 1.145-1.154c.424 0 .855-.006 1.29-.013.455-.006.912-.013 1.372-.013 1.277 0 2.783.047 4.271.393.617.143 1.001.762.859 1.383zm9.567-3.141c-.075 0-.151-.007-.226-.023-1.558-.314-3.124-.314-4.783-.314a1.15 1.15 0 0 1-1.145-1.153 1.15 1.15 0 0 1 1.145-1.153c1.697 0 3.451 0 5.232.359.62.125 1.022.732.898 1.357a1.147 1.147 0 0 1-1.121.927zm.48 3.654c-1.336.385-2.429.549-3.653.549a1.15 1.15 0 0 1-1.145-1.154 1.15 1.15 0 0 1 1.145-1.153c1.012 0 1.888-.133 3.024-.46a1.145 1.145 0 0 1 1.415.792 1.155 1.155 0 0 1-.786 1.426zm7.363-3.991a1.15 1.15 0 0 1-1.145-1.153 1.15 1.15 0 0 1 1.145-1.153h4.005a1.15 1.15 0 0 1 1.145 1.153 1.15 1.15 0 0 1-1.145 1.153h-4.005zm14.894-1.015a1.153 1.153 0 0 1-1.012-1.274 1.148 1.148 0 0 1 1.265-1.019c1.439.161 2.724.161 4.213.161a1.15 1.15 0 0 1 1.145 1.154 1.15 1.15 0 0 1-1.145 1.153c-1.492 0-2.901 0-4.466-.175zm13.478.343a1.15 1.15 0 0 1-1.145-1.153 1.15 1.15 0 0 1 1.145-1.153h3.171a1.15 1.15 0 0 1 1.145 1.153 1.15 1.15 0 0 1-1.145 1.153h-3.171zm19.027.169c-.092 0-.186-.012-.279-.035-.563-.142-1.201-.18-1.875-.22-.75-.045-1.525-.09-2.297-.285a1.153 1.153 0 0 1-.832-1.398 1.142 1.142 0 0 1 1.388-.839c.564.142 1.201.18 1.876.219.75.045 1.525.091 2.296.285a1.154 1.154 0 0 1-.277 2.273zm8.822 2.881a1.15 1.15 0 0 1-1.145 1.153h-4.006a1.15 1.15 0 0 1-1.145-1.153 1.15 1.15 0 0 1 1.145-1.154h4.006a1.15 1.15 0 0 1 1.145 1.154zm-.311-5.525h3.672a1.15 1.15 0 0 1 1.145 1.154 1.15 1.15 0 0 1-1.145 1.153h-3.672a1.15 1.15 0 0 1-1.145-1.153 1.15 1.15 0 0 1 1.145-1.154zm15.999 6.029a1.15 1.15 0 0 1-1.145 1.153h-3.338a1.15 1.15 0 0 1-1.145-1.153 1.15 1.15 0 0 1 1.145-1.154h3.338a1.15 1.15 0 0 1 1.145 1.154zm-2.188-6.357c.59.064 1.39.034 2.151-.006.89-.047 1.801-.075 2.524.006a1.15 1.15 0 0 1 1.011 1.273 1.145 1.145 0 0 1-1.265 1.019c-.587-.067-1.389-.035-2.15.005-.477.026-.955.05-1.425.05-.402 0-.762-.018-1.096-.055a1.151 1.151 0 0 1-1.013-1.273 1.14 1.14 0 0 1 1.263-1.019zm9.388 7.174a1.15 1.15 0 0 1-1.145-1.153 1.15 1.15 0 0 1 1.145-1.154h4.34a1.15 1.15 0 0 1 1.145 1.154 1.15 1.15 0 0 1-1.145 1.153h-4.34zM116.475 72.63c.292.097.534.309.67.587.548 1.123 1.121 2.229 1.693 3.335.996 1.928 2.027 3.921 2.916 5.977a1.157 1.157 0 0 1-.584 1.514c-1.035.464-2.077.92-3.12 1.376-3.795 1.661-7.719 3.379-11.28 5.503a1.14 1.14 0 0 1-1.56-.391c-1.518-2.501-3.058-5.275-4.706-8.479a1.158 1.158 0 0 1 .476-1.547c4.41-2.382 9.541-5.147 14.609-7.802.273-.143.593-.169.886-.073zm-9.889 15.735c3.405-1.933 7.032-3.521 10.551-5.061.685-.299 1.369-.599 2.051-.9-.746-1.625-1.575-3.228-2.382-4.787-.399-.773-.799-1.547-1.192-2.326-4.34 2.282-8.69 4.622-12.554 6.708a134.65 134.65 0 0 0 3.526 6.366zm-31.892-.457c1.656-.782 3.329-1.547 5.001-2.313 1.651-.756 3.303-1.512 4.939-2.284a1.14 1.14 0 0 1 1.537.589c.19.444.376.89.562 1.338.487 1.166.99 2.372 1.551 3.534a1.16 1.16 0 0 1-.533 1.543c-2.189 1.062-4.335 2.317-6.411 3.531-.925.541-1.848 1.081-2.778 1.607a1.137 1.137 0 0 1-.894.098 1.152 1.152 0 0 1-.689-.583c-.408-.812-.826-1.613-1.245-2.414-.534-1.023-1.068-2.046-1.581-3.091a1.16 1.16 0 0 1 .541-1.555zm3.067 3.572c.239.456.477.912.713 1.371.573-.331 1.145-.665 1.716-1 1.797-1.05 3.645-2.131 5.551-3.107-.395-.878-.761-1.756-1.119-2.613a15.276 15.276 0 0 0-.094-.226c-1.29.601-2.587 1.196-3.885 1.79-1.306.598-2.612 1.195-3.91 1.801.339.665.684 1.324 1.028 1.984zm71.514-44.097l-15.067 7.219c.002.023.014.042.015.065.344 11.256.853 19.49 1.301 26.755.415 6.718.775 12.572.852 18.753.002.03.017.055.017.085 0 .026-.013.047-.015.072.002.119.005.236.006.355 3.791 3.357 8.269 7.245 13.025 10.955.257.2.417.501.441.828.233 3.226.363 5.852.409 8.264a1.15 1.15 0 0 1-1.117 1.175l-75.979 1.863c-.299 0-.586-.118-.8-.328a1.157 1.157 0 0 1-.345-.826v-.168c0-.637.512-1.153 1.145-1.153.208 0 .403.056.571.154l74.207-1.819a158.561 158.561 0 0 0-.339-6.483c-4.816-3.779-9.323-7.708-13.115-11.07a1.133 1.133 0 0 1-.346-.666H21.591a1.15 1.15 0 0 1-1.145-1.153c0-.071.028-.132.04-.199a1.145 1.145 0 0 1-.358.431c-6.7 4.852-12.02 9.211-16.696 13.684.004.328.005.655.005.982a1.14 1.14 0 0 1 1.117-1.089l46.607-.557a123.318 123.318 0 0 1 5.193-4.575c.205-.172.464-.265.73-.265h.091c4.096 0 8.269.096 12.305.189 4.034.093 8.205.189 12.299.189 4.495 0 8.422-.118 12.009-.361.492-.039.989.28 1.158.771a50.085 50.085 0 0 0 1.384 3.513l49.085-.586c.64 0 1.151.508 1.159 1.14a1.15 1.15 0 0 1-1.132 1.167l-49.838.595h-.001l-91.035 1.086a1.141 1.141 0 0 1-1.13-1.067v.058c0 1.345-.024 2.687-.049 4.032-.024 1.334-.049 2.67-.049 4.013v.243l66.113-2.188c.635-.03 1.161.478 1.182 1.114a1.15 1.15 0 0 1-1.107 1.191l-67.323 2.228c-.293 0-.576-.114-.79-.319a1.16 1.16 0 0 1-.355-.818c-.006-.485-.01-.969-.01-1.451 0-1.357.025-2.708.049-4.056.025-1.33.049-2.658.049-3.989 0-.551-.003-1.103-.014-1.655a1.16 1.16 0 0 1 .354-.855c4.724-4.556 10.072-8.973 16.794-13.868-.376-7.059-.743-14.649-1.153-23.814-.228-5.089-.616-10.226-.991-15.195-.516-6.826-1.032-13.87-1.156-20.897a1.131 1.131 0 0 1-.207.023 1.154 1.154 0 0 1-.239-2.281c.23-.05.459-.101.687-.153.106-.024.209-.013.312-.008.164-.094.344-.162.546-.164.638 0 1.15.509 1.156 1.142.071 7.42.637 14.915 1.184 22.163.377 4.986.765 10.142.995 15.266.422 9.431.799 17.192 1.187 24.423.006.109-.038.207-.061.31a1.144 1.144 0 0 1 1.049-.696H134.07c-.103-5.73-.443-11.254-.831-17.542-.437-7.076-.931-15.079-1.275-25.888L78.606 81.245a1.14 1.14 0 0 1-1.542-.582c-3.021-7.001-6.197-14.095-9.269-20.955C64.189 51.655 60.46 43.327 56.96 35.1c-.018-.04-.014-.082-.026-.123a.352.352 0 0 1-.009-.042c-.138-.532.097-1.1.608-1.336l26.274-12.193-46.861.156a1.15 1.15 0 0 1-1.145-1.15 1.15 1.15 0 0 1 1.141-1.157l50.57-.168c.274 0 .514.109.711.269L127.32 1.213c.032-.015.067-.012.1-.024.017-.006.036-.007.053-.012.121-.037.241-.062.367-.057.047.001.093.018.14.025.081.013.165.012.242.043.015.006.025.02.04.027.014.005.029.004.042.01.079.037.134.098.2.149.038.031.082.052.115.087.131.132.227.287.282.461 3.562 8.895 7.961 17.627 12.216 26.073 2.929 5.811 5.958 11.821 8.707 17.866.26.573.016 1.251-.549 1.522zm-55.424 65.62a54.2 54.2 0 0 1-.772-1.957c-3.403.209-7.111.311-11.3.311-4.12 0-8.305-.097-12.352-.19-3.916-.09-7.963-.184-11.93-.188-1.007.844-1.958 1.67-2.881 2.492l39.235-.468zm52.286-66.671c-8.295-2.876-13.734-4.386-18.126-5.599-4.943-1.365-8.911-2.47-14.653-4.834l-4.532 9.694a1.144 1.144 0 0 1-1.268.638L92.71 43.135c-.747 2.031-1.836 4.627-3.098 7.631-3.216 7.654-7.554 17.981-9.643 27.272l66.168-31.706zM69.882 58.76c2.65 5.919 5.374 12.01 8.016 18.072 2.188-9.304 6.434-19.418 9.605-26.965 1.187-2.824 2.21-5.268 2.935-7.206l-30.464-6.352c3.226 7.517 6.616 15.098 9.908 22.451zm-8.345-24.48l45.601 9.508L125.452 4.62 61.537 34.28zm77.539-5.241c-3.907-7.752-7.915-15.75-11.325-23.922l-13.415 28.692c5.558 2.281 9.446 3.364 14.281 4.7 4.34 1.198 9.695 2.685 17.79 5.478-2.367-5.048-4.874-10.071-7.331-14.948zM72.419 6.741c-1.052.044-2.09.103-3.123.162l-.359.019.013.264c.059 1.052.118 2.109.163 3.181a1.15 1.15 0 0 1-1.097 1.2l-.048.001a1.15 1.15 0 0 1-1.144-1.105 194.685 194.685 0 0 0-.161-3.147l-.014-.275a76.352 76.352 0 0 1-3.472.092 1.15 1.15 0 0 1-1.145-1.153 1.15 1.15 0 0 1 1.145-1.154 72.86 72.86 0 0 0 3.354-.088 78.379 78.379 0 0 1-.096-3.585A1.15 1.15 0 0 1 67.58 0a1.15 1.15 0 0 1 1.145 1.153c0 1.17.04 2.315.093 3.465l.348-.018c1.045-.059 2.094-.119 3.159-.164a1.15 1.15 0 0 1 1.191 1.105l.001.048a1.15 1.15 0 0 1-1.098 1.152zm-35.48 3.632l.021.366-1.511.097-.776.038-.01-.183a4.84 4.84 0 0 1-1.17.152c-2.507 0-4.192-1.812-4.192-4.508 0-2.306 1.196-4.854 3.823-5.001 2.476-.139 5.093 1.675 5.093 4.804 0 1.271-.587 2.584-1.604 3.504.183.193.31.444.326.731zm-3.537-6.741c-.05 0-.1.001-.15.005-1.219.068-1.661 1.65-1.661 2.698 0 1.419.675 2.201 1.902 2.201 1.839 0 2.434-1.615 2.434-2.398 0-1.569-1.283-2.506-2.525-2.506zm1.272 7.253l.775-.049.368-.019-1.143.068zm-2.978 19.542c-.262 0-.526-.091-.742-.275a1.16 1.16 0 0 1-.128-1.626c.144-.171.285-.346.424-.523a1.138 1.138 0 0 1 1.607-.193c.498.394.583 1.119.192 1.62-.156.2-.317.398-.481.591a1.138 1.138 0 0 1-.872.406zm3.241-13.835a1.149 1.149 0 0 1 1.144-1.132 1.154 1.154 0 0 1 1.146 1.174c-.005.253-.013.503-.024.751a1.148 1.148 0 0 1-1.142 1.102l-.052-.001a1.15 1.15 0 0 1-1.093-1.203c.01-.228.017-.459.021-.691zm1.27 6.757c-.076.244-.155.484-.239.721a1.146 1.146 0 0 1-1.461.703 1.156 1.156 0 0 1-.698-1.472c.075-.213.146-.428.214-.646a1.145 1.145 0 0 1 1.437-.753c.603.192.937.839.747 1.447zm2.577 43.042c4.719-1.7 9.597-3.458 14.445-5.113.288-.099.605-.077.877.059.273.137.481.378.577.669 1.85 5.61 3.931 11.245 5.943 16.694l.448 1.213a1.156 1.156 0 0 1-.639 1.468c-3.172 1.31-6.351 2.589-9.529 3.866-5.383 2.165-10.951 4.404-16.371 6.763a1.14 1.14 0 0 1-.919-.005 1.15 1.15 0 0 1-.62-.685l-.832-2.477c-1.863-5.544-3.789-11.278-5.503-16.965a1.155 1.155 0 0 1 .721-1.425 1161.05 1161.05 0 0 0 11.402-4.062zm.771 2.171c-2.872 1.035-5.82 2.093-8.761 3.132 2.154.64 4.277 1.374 6.347 2.091 2.442.845 4.959 1.716 7.466 2.407.91-1.514 1.894-2.991 2.849-4.427 1.627-2.444 3.275-4.967 4.548-7.624a1069.72 1069.72 0 0 0-12.449 4.421zm14.091-2.519c-1.265 2.458-2.794 4.762-4.288 7.006-.101.151-.202.308-.302.459 1.939.609 3.721 1.554 5.442 2.492 1.128.615 2.215 1.197 3.314 1.677-1.406-3.825-2.819-7.716-4.166-11.634zm-3.589 17.062c2.5-1.005 5.001-2.015 7.499-3.036-1.442-.572-2.814-1.313-4.148-2.041-1.903-1.037-3.703-2.015-5.668-2.52a65.241 65.241 0 0 0-1.601 2.602 1.142 1.142 0 0 1-1.274.537 73.191 73.191 0 0 1-3.973-1.167c-.569.886-2.389 4.038-4.817 11.371 4.666-1.987 9.388-3.898 13.982-5.746zm-15.935 4.364c2.06-6.106 3.69-9.3 4.533-10.728-.759-.257-1.513-.517-2.259-.775-2.204-.763-4.469-1.54-6.745-2.199 1.43 4.598 2.962 9.205 4.471 13.702zm-7.363-39.13c4.286-1.959 8.517-3.835 13.55-6.048.287-.127.615-.128.904-.005.289.123.515.36.626.656a255.303 255.303 0 0 1 2.98 8.412 1.155 1.155 0 0 1-.669 1.442c-4.296 1.692-8.701 3.768-13.093 6.171a1.142 1.142 0 0 1-1.614-.599L28.2 55.117a1559.7 1559.7 0 0 0-2.035-5.31c-.22-.57.041-1.214.594-1.468zm3.578 5.95l.776 2.03A118.393 118.393 0 0 1 42.3 51.054a248.27 248.27 0 0 0-2.182-6.162 1014.209 1014.209 0 0 0-11.426 5.098c.552 1.437 1.099 2.868 1.645 4.299zm-2.939-19.868a1.143 1.143 0 0 1-1.576-.373 1.157 1.157 0 0 1 .372-1.588c.193-.121.385-.244.574-.37a1.14 1.14 0 0 1 1.586.328 1.157 1.157 0 0 1-.325 1.597c-.207.138-.418.273-.631.406zm-6.154.456a1.142 1.142 0 0 1 1.477.669 1.155 1.155 0 0 1-.665 1.487c-.228.088-.459.174-.691.257a1.146 1.146 0 0 1-1.464-.696c-.213-.6.097-1.26.692-1.475.219-.079.436-.16.651-.242zm-17.315-.695c.197-.05.4-.075.606-.075 1.547 0 3.748 1.508 4.244 3.697l.204-.026a1.146 1.146 0 0 1 1.283.994 1.152 1.152 0 0 1-.988 1.293l-.382.05a1.192 1.192 0 0 1-.146.009c-.055 0-.105-.022-.159-.029-.696 1.794-2.595 3.311-4.486 3.311C1.649 43.406 0 41.123 0 38.991c0-2.177 1.689-4.244 3.929-4.809zm.176 6.917c1.203 0 2.492-1.404 2.492-2.392 0-1.276-1.481-2.293-2.062-2.293l-.049.006c-1.232.31-2.196 1.439-2.196 2.571 0 .88.69 2.108 1.815 2.108zm13.876-21.57c-1.275 0-2.076-.488-2.593-1.176-.464 1.553-1.515 3.008-3.898 3.008-2.451 0-3.968-2.667-3.968-5.138 0-3.515 2.17-6.066 5.159-6.066 3.373 0 3.749 2.927 3.974 4.675.278 2.155.514 2.39 1.326 2.39 1.85 0 2.986-2.754 2.986-4.728 0-2.66-2.973-5.624-7.24-5.624-3.465 0-10.016 1.937-10.016 9.269 0 6.307 4.29 9.13 8.543 9.13 3.163 0 5.71-1.294 7.788-3.957.39-.5 1.111-.588 1.607-.194.498.394.584 1.118.194 1.619-2.505 3.211-5.731 4.839-9.589 4.839-6.379 0-10.833-4.703-10.833-11.437 0-5.576 3.85-11.576 12.306-11.576 5.166 0 9.53 3.632 9.53 7.931 0 3.383-2.017 7.035-5.276 7.035zm-5.3-7.066c-1.972 0-2.869 1.949-2.869 3.76 0 1.482.799 2.832 1.678 2.832 1.04 0 1.975-.298 1.975-3.892 0-.27-.004-.534-.008-.787-.003-.244-.006-.479-.006-.7 0-.318.127-.606.334-.815-.238-.295-.578-.398-1.104-.398zm136.024 76.324a1.144 1.144 0 0 1-1.143-1.086c-.114-1.952-.234-3.909-.354-5.867-.116-1.896-.233-3.793-.343-5.684a1.151 1.151 0 0 1 1.055-1.218c4.645-.361 9.212-.976 13.066-1.531.315-.047.637.044.885.248.247.203.4.501.42.823.149 2.433.352 4.912.548 7.31.122 1.495.245 2.991.356 4.487a1.15 1.15 0 0 1-1.013 1.231c-2.966.339-5.993.611-8.922.874-1.48.132-2.963.265-4.447.407a.977.977 0 0 1-.108.006zm.788-7.095c.097 1.562.192 3.123.284 4.682 1.095-.102 2.187-.2 3.28-.298 2.553-.229 5.182-.465 7.77-.745-.087-1.12-.179-2.24-.27-3.36a440.117 440.117 0 0 1-.471-6.112c-3.297.465-7.034.95-10.868 1.281.09 1.516.182 3.034.275 4.552z"/>
</svg>
