<svg xmlns="http://www.w3.org/2000/svg" width="140" height="142">
    <path fill="#33363B" fill-rule="evenodd" d="M135.06 69.335c-1.703 2.321-3.463 4.721-5.057 7.134a1.56 1.56 0 0 1-1.302.699c-.591-.019-1.085-.315-1.354-.784-.452-.79-.894-1.586-1.335-2.38-.34-.613-.676-1.216-1.012-1.811-2.916 1.6-5.734 3.402-8.459 5.149a246.925 246.925 0 0 1-5.124 3.213c-.067 1.24-.118 2.485-.159 3.704-.043 1.278-.086 2.557-.155 3.836a1.551 1.551 0 0 1-.69 1.205c-.798.531-1.598 1.058-2.397 1.586-2.766 1.825-5.625 3.712-8.314 5.678a1.567 1.567 0 0 1-1.719.082 1.546 1.546 0 0 1-.747-1.543c.267-1.932.345-3.968.408-5.952-1.365-.221-2.713-.516-4.026-.804-.8-.176-1.601-.352-2.408-.511a1.554 1.554 0 0 1-1.217-1.184c-.135-.6.101-1.222.599-1.585 1.814-1.326 3.686-2.62 5.497-3.871 1.973-1.362 4.012-2.771 5.954-4.207.337-.25.758-.353 1.178-.286 2.522.405 4.753.665 6.818.795.104.007.196.052.295.079a278.358 278.358 0 0 0 4.52-2.842c2.745-1.759 5.586-3.57 8.566-5.21a40.75 40.75 0 0 0-1.619-2.44 1.543 1.543 0 0 1-.16-1.538 1.558 1.558 0 0 1 1.256-.911c4.206-.449 8.671-1.063 13.65-1.878a1.56 1.56 0 0 1 1.573.707 1.545 1.545 0 0 1-.048 1.716 313.978 313.978 0 0 1-3.012 4.154zm-31.686 10.53c-1.818 1.33-3.692 2.624-5.508 3.878-.853.589-1.719 1.187-2.585 1.793 1.41.304 2.769.575 4.144.733a1.553 1.553 0 0 1 1.378 1.593l-.032.987c-.034 1.068-.068 2.153-.13 3.242a322.465 322.465 0 0 1 5.653-3.788l1.737-1.148c.047-1 .08-2 .114-3 .04-1.207.082-2.442.147-3.681a77.363 77.363 0 0 1-4.918-.609zm22.414-12.436c1.057 1.668 2.015 3.392 2.95 5.075l.089.16c1.219-1.752 2.483-3.474 3.717-5.157.271-.369.542-.738.811-1.108-2.645.4-5.154.742-7.567 1.03zm-1.331-6.199a1.557 1.557 0 0 1-1.699-1.397c-.051-.542-.053-1.262-.056-2.175-.018-6.805-.059-22.742-20.327-22.742-1.435 0-2.903.05-4.323.098-1.115.037-2.253.069-3.375.083.155 3.988.303 8.034.36 12.037a1.553 1.553 0 0 1-1.312 1.552c-4.657.744-13.711 1.279-22.709 1.651.014 6.056.302 12.229.585 18.206.159 3.386.324 6.886.438 10.329.028.856-.646 1.573-1.558 1.601a1.554 1.554 0 0 1-1.556-1.499 707.163 707.163 0 0 0-.437-10.285c-.282-5.973-.568-12.142-.586-18.229-3.697.139-7.29.25-10.474.337.021.09.062.172.067.268l.023.521a1.553 1.553 0 0 1-1.492 1.613l-.065.001a1.554 1.554 0 0 1-1.556-1.486l-.021-.503c-.006-.118.031-.224.051-.335-5.077.126-8.543.182-8.644.182a55.58 55.58 0 0 1-3.723-.117 1.554 1.554 0 0 1-1.447-1.412 1849.52 1849.52 0 0 1-1.197-14.497c-1.011.148-2.016.292-2.987.429C20.983 37.64 12.47 38.841 12.47 56.9c0 2.598.146 5.244.288 7.803l.111 2.061c.002.021-.009.039-.008.06 4.159.561 9.424 4.12 9.424 11.095 0 4.108-1.706 7.658-4.346 9.742.834 3.802 1.98 4.643 3.195 5.499 2.089 1.473 3.569 2.995 3.591 9.185a1.552 1.552 0 0 1-1.391 1.547c-4.865.522-9.832.939-14.634 1.344-2.221.187-4.444.375-6.667.572a1.556 1.556 0 0 1-1.631-1.102c-.384-1.281-.401-4.06-.401-4.088 0-6.676 3.663-8.285 6.088-9.35 1.753-.77 2.039-1.018 2.039-1.767 0-.163-.008-.329-.015-.495a15.049 15.049 0 0 1-.018-.635c0-.033.017-.061.019-.094-2.921-1.909-5.223-5.719-5.223-10.636 0-4.853 2.402-8.848 6.268-10.427.199-.081.417-.122.626-.183-.005-.038-.025-.07-.027-.108l-.11-2.049c-.144-2.601-.294-5.291-.294-7.974 0-20.751 11.177-22.328 26.646-24.509 1.034-.146 2.101-.298 3.182-.456-.643-8.304-1.216-16.382-1.216-18.449 0-1.039.016-2.079.047-3.119a1.553 1.553 0 0 1 1.557-1.504c.938.009 1.859.014 2.782.014 10.151 0 22.321-.392 36.161-1.159C80.061 3.58 83.608.179 88.648.022c.191-.006.384-.009.576-.009 7.763 0 12.979 4.83 12.979 12.018 0 4.078-2.551 9.725-7.941 11.771.086 2.732.19 5.465.298 8.196 1.1-.012 2.214-.043 3.386-.083 1.446-.048 2.941-.099 4.429-.099 23.375 0 23.426 19.444 23.442 25.834.003.799.004 1.49.043 1.89a1.553 1.553 0 0 1-1.403 1.69zM7.358 94.3c-.067-.032-.109-.087-.169-.126-2.116.932-4.073 1.901-4.073 6.444 0 .452.033 1.261.094 1.975 1.743-.152 3.486-.299 5.228-.446 4.315-.363 8.764-.738 13.139-1.188-.18-3.813-1.065-4.437-2.244-5.269-.608-.428-1.187-.882-1.731-1.456-1.443.855-3.12 1.302-4.933 1.302-1.767 0-3.604-.428-5.311-1.236zm8.557-2.682a16.038 16.038 0 0 1-.82-2.432 8.786 8.786 0 0 1-2.736.444c-.371 0-.745-.043-1.118-.105-.005 1.116-.352 1.943-.864 2.585.767.207 1.54.326 2.292.326 1.2 0 2.301-.283 3.246-.818zm-3.556-5.088c3.348 0 6.81-3.221 6.81-8.611 0-2.123-.613-3.737-1.506-4.952-5.315 1.83-8.987 4.468-10.894 7.855a1.538 1.538 0 0 1-.232.307c1.122 3.502 3.815 5.401 5.822 5.401zm-2.018-16.448c-2.424.991-3.967 3.357-4.27 6.434 2.128-2.378 5.086-4.335 8.849-5.843-1.167-.585-2.344-.838-3.201-.838-.511 0-.974.083-1.378.247zm35.45-22.125c.305 0 31.437-.498 44.695-1.971-1.039-1.043-1.734-1.836-2.502-2.716-1.779-2.038-4.221-4.831-13.315-13.291-2.311 2.142-4.66 4.372-6.456 6.172a1.55 1.55 0 0 1-1.105.459c-.347 0-.694-.114-.981-.346a303.618 303.618 0 0 1-6.765-5.65c-4.444 5.081-9.102 10.634-14.533 17.326.322.005.625.017.962.017zm46.027-5.064a821.806 821.806 0 0 0-.359-10.438c-.105-2.647-.202-5.295-.288-7.942-.427.042-.861.073-1.314.073-2.322 0-4.704-.764-6.745-2.123-.775.589-3.261 2.775-6.148 5.407 9.072 8.447 11.559 11.29 13.372 13.367.503.576.954 1.092 1.482 1.656zM41.096 14.172c.144 4.389 1.409 20.61 2.25 30.66 5.059-6.21 9.452-11.435 13.663-16.251-6.203-5.39-12.454-11.09-15.913-14.409zm36.541-1.717c0-.529.044-1.061.109-1.591-13.093.713-24.671 1.086-34.456 1.109 4.926 4.728 15.677 14.429 23.715 21.002 4.405-4.325 11.277-10.56 13.704-12.565-1.859-2.055-3.072-4.776-3.072-7.955zm21.45-.424c0-5.501-3.78-8.918-9.863-8.918-.16 0-.318.002-.476.007-4.939.154-7.996 4.966-7.996 9.335 0 5.815 5.385 9.031 9.105 9.031 6.906 0 9.23-6.493 9.23-9.455zm-11.185 1.832c-2.105 0-3.678-1.637-3.678-3.101 0-2.284 2.559-5.783 5.713-5.783 1.878 0 3.971 2.241 3.971 5.456 0 1.127-.198 2.258-.389 3.351-.168.953-.326 1.854-.326 2.614 0 .111.004.221.011.328a1.552 1.552 0 0 1-1.556 1.66c-.81 0-1.493-.625-1.551-1.441a7.562 7.562 0 0 1-.02-.547c0-1.029.189-2.106.372-3.147-.811.355-1.691.61-2.547.61zm2.721-4.587c-.216-.688-.588-1.081-.786-1.193-1.137.09-2.281 1.688-2.47 2.478.1.088.285.202.535.202.776 0 1.969-.667 2.721-1.487zM18.782 124.804c1.786.072 3.583.069 5.381.011-.002-.191-.009-.38-.009-.573 0-1.476.054-2.838.165-4.164a1.553 1.553 0 0 1 1.683-1.416 1.553 1.553 0 0 1 1.423 1.674 45.949 45.949 0 0 0-.156 3.906c0 .138.006.274.007.411a76.628 76.628 0 0 0 3.45-.324 1.558 1.558 0 0 1 1.732 1.354 1.552 1.552 0 0 1-1.361 1.724 78.555 78.555 0 0 1-3.726.333c.072 1.38.171 2.71.272 3.915a1.553 1.553 0 0 1-1.555 1.678 1.556 1.556 0 0 1-1.551-1.421 126.45 126.45 0 0 1-.278-4.023c-.831.027-1.665.075-2.491.075-1.037 0-2.074-.021-3.11-.061a1.555 1.555 0 0 1-1.495-1.612 1.563 1.563 0 0 1 1.619-1.487zm37.227-66.832c.87.005 1.563.703 1.558 1.559l-.007.99a1.558 1.558 0 0 1-3.116-.029l.008-.98a1.553 1.553 0 0 1 1.557-1.54zm.123 8.858a1.56 1.56 0 0 1 1.684 1.413c.029.32.059.638.092.953a1.553 1.553 0 0 1-1.552 1.709 1.554 1.554 0 0 1-1.547-1.392 52.03 52.03 0 0 1-.096-1.006 1.552 1.552 0 0 1 1.419-1.677zm1.239 8.767a1.557 1.557 0 0 1 1.929 1.058c.087.303.18.601.275.895a1.55 1.55 0 0 1-1.483 2.027 1.558 1.558 0 0 1-1.482-1.074 33.576 33.576 0 0 1-.304-.987 1.55 1.55 0 0 1 1.065-1.919zm4.865 11.752a1.56 1.56 0 0 1-1.198-.558 20.61 20.61 0 0 1-.661-.832 1.545 1.545 0 0 1 .311-2.171 1.561 1.561 0 0 1 2.18.309c.183.242.371.479.564.71.55.657.461 1.634-.2 2.182-.291.242-.645.36-.996.36zm7.096 5.185c-.202 0-.407-.039-.604-.123a20.871 20.871 0 0 1-.971-.436 1.546 1.546 0 0 1-.728-2.068 1.56 1.56 0 0 1 2.079-.725c.272.13.549.255.831.374a1.547 1.547 0 0 1 .829 2.031 1.559 1.559 0 0 1-1.436.947zm8.516 1.953a36.024 36.024 0 0 1-1.029-.095 1.552 1.552 0 0 1-1.384-1.705 1.56 1.56 0 0 1 1.714-1.378c.308.033.623.063.94.087a1.551 1.551 0 0 1 1.432 1.665 1.553 1.553 0 0 1-1.673 1.426zm-13.131 35.091c2.2-.938 2.912-1.359 2.912-2.758a4.57 4.57 0 0 0-.027-.467c-4.194-1.879-6.176-7.522-6.176-11.574 0-2.786.806-5.366 2.331-7.463 1.649-2.267 4.579-3.074 6.771-3.074 5 0 10.396 4.237 10.396 11.082 0 3.995-1.645 7.141-3.951 9.157.028.118.072.23.072.356 0 .258-.008.532-.019.814-.008.264-.017.536-.017.808 0 1.774.365 1.861 2.118 2.275 2.456.583 6.168 1.462 6.942 9.049.08.787-.45 1.509-1.228 1.673-9.506 1.997-17.606 2.531-20.893 2.531-.696 0-1.391-.008-2.087-.015-.687-.008-1.372-.015-2.061-.015l-.4.001a1.557 1.557 0 0 1-1.551-1.347c-.043-.32-.06-.64-.06-.958 0-7.124 4.169-8.9 6.928-10.075zm5.811-22.236c-1.709 0-3.298.646-4.128 1.654.515-.014 1.029-.028 1.543-.028 3.089 0 5.823.558 8.543 1.759-1.409-2.155-3.738-3.385-5.958-3.385zm7.28 7.982c0-.142-.013-.276-.02-.415-3.262-1.99-6.21-2.841-9.845-2.841-.63 0-1.26.017-1.895.035-.378.01-.766.014-1.149.021a10.337 10.337 0 0 0-.358 2.655c0 3.179 1.784 9.117 6.082 9.117 3.47 0 7.185-3.445 7.185-8.572zm-3.912 11.027a9.09 9.09 0 0 1-3.168.64c-.022.862-.206 1.578-.5 2.181.917.454 1.913.717 2.811.717.597 0 1.122-.124 1.587-.345-.445-.73-.732-1.718-.732-3.085l.002-.108zm-12.003 12.521c.686.007 1.369.014 2.055.014.334 0 7.987-.025 18.834-2.175-.712-4.092-2.424-4.498-4.377-4.961-.338-.08-.708-.168-1.087-.285-1.161.987-2.628 1.524-4.279 1.524-1.693 0-3.498-.574-5.066-1.548-.665.391-1.369.705-2.03.986-2.557 1.09-4.784 2.039-5.018 6.435l.968.01zm23.982-44.406a1.554 1.554 0 0 1-1.552-1.444 1.552 1.552 0 0 1 1.448-1.652c.315-.022.635-.046.956-.074a1.55 1.55 0 1 1 .272 3.088c-.341.03-.68.056-1.016.079a1.947 1.947 0 0 1-.108.003zm8.023-4.744c.12-.063.233-.127.341-.194a1.563 1.563 0 0 1 2.146.493 1.546 1.546 0 0 1-.495 2.136c-.177.11-.361.215-.556.315a1.556 1.556 0 0 1-2.1-.661 1.544 1.544 0 0 1 .664-2.089zm25.459 32.586c1.771-.856 2.383-1.231 2.383-2.788 0-.032-.003-.062-.004-.094-3.796-1.688-6.044-6.405-6.044-10.846 0-3.479 1.346-6.536 3.789-8.607 1.184-1.003 2.658-1.587 4.289-1.763l-.919-18.133a1.552 1.552 0 0 1 1.477-1.626 1.552 1.552 0 0 1 1.634 1.47l.936 18.459c3.717.812 8.037 3.741 8.037 9.888 0 4.262-1.913 7.67-4.501 9.712.072.22.11.453.074.697a4.262 4.262 0 0 0-.043.582c0 1.337.342 1.482 2.156 2.024 2.481.742 6.229 1.863 7.372 8.803a1.556 1.556 0 0 1-1.43 1.797c-8.696.596-16.03 1.256-23.079 2.076a1.56 1.56 0 0 1-1.734-1.423 12.502 12.502 0 0 1-.036-.97c0-6.533 3.262-8.108 5.643-9.258zm5.405-21.077c-.894 0-2.186.191-3.261 1.102-1.434 1.216-2.326 2.944-2.597 4.947 2.757-3.033 5.779-4.867 8.911-5.362-1.168-.512-2.325-.687-3.053-.687zm7.058 7.037c0-1.463-.329-2.634-.849-3.57-.247.128-.517.216-.814.197-4.623-.327-8.338 3.38-10.6 6.475a1.56 1.56 0 0 1-.296.3c.856 2.903 2.869 5.31 5.535 5.31 3.322 0 7.024-3.578 7.024-8.712zm-7.429 13.539c.585.395 1.28.625 1.982.625.453 0 1.079-.112 1.662-.516-.35-.587-.599-1.314-.651-2.273-.85.28-1.718.435-2.577.436a5.555 5.555 0 0 1-.416 1.728zm12.163 7.109c-.99-3.516-2.862-4.076-4.831-4.664-.38-.114-.789-.244-1.198-.401-.044.052-.068.115-.12.162-1.082.979-2.514 1.519-4.032 1.519-1.428 0-2.839-.506-3.985-1.362-.559.375-1.142.671-1.671.927-1.944.939-3.642 1.759-3.863 5.585 6.079-.679 12.422-1.249 19.7-1.766z"/>
</svg>
