<svg xmlns="http://www.w3.org/2000/svg" width="53" height="46">
    <defs>
        <linearGradient id="a" x1="0%" x2="85.717%" y1="0%" y2="51.504%">
            <stop offset="0%" stop-color="#32C2F1"/>
            <stop offset="100%" stop-color="#81F9D0"/>
        </linearGradient>
    </defs>
    <path fill="#FFF" fill-rule="evenodd" d="M51.895 45.776a2.06 2.06 0 0 1-2.117-.149l-10.865-7.62H10.41C4.67 38.007 0 33.398 0 27.732V10.275C0 4.609 4.67 0 10.41 0h32.154c5.74 0 10.41 4.609 10.41 10.275v13.763c.017.103.026.209.026.316v19.632a2.01 2.01 0 0 1-1.105 1.79zM48.92 24.701a2.015 2.015 0 0 1-.026-.321V10.275c0-3.445-2.839-6.248-6.33-6.248H10.41c-3.49 0-6.33 2.803-6.33 6.248v17.457c0 3.445 2.84 6.248 6.33 6.248h29.155c.423 0 .837.129 1.181.372l8.174 5.733V24.701zm-10.038.986l-3.883-3.833-.747.737c-.747.59-1.344 1.032-1.942 1.622a9.355 9.355 0 0 1-5.824 2.063 9.358 9.358 0 0 1-5.825-2.063c-.747-.443-1.195-1.032-1.941-1.622l-.747-.59-3.883 3.98c-.598.737-1.942.737-2.689 0-.448-.294-.597-.884-.597-1.326 0-.442.299-1.032.597-1.327l3.884-3.832-6.572-5.749c-.747-.59-.896-1.622-.448-2.506.448-.885 1.643-1.179 2.539-.737l.149.147c0 .148.15.148.299.295l10.305 8.992c.598.589 1.046 1.032 1.643 1.474 1.045.737 2.091 1.179 3.286 1.179h.298c1.195 0 2.241-.442 3.286-1.179.448-.442 1.045-.885 1.643-1.474l10.454-8.992c0-.147.15-.147.299-.295.448-.147.747-.295 1.045-.295.598 0 1.345.295 1.643.885.448.884.299 1.916-.746 2.358l-6.572 5.749 3.734 3.685c.448.295.597.885.597 1.327 0 .442-.298 1.032-.597 1.327-.597.737-1.942.737-2.688 0z"/>
    <path fill="url(#a)" d="M51.895 45.776a2.06 2.06 0 0 1-2.117-.149l-10.865-7.62H10.41C4.67 38.007 0 33.398 0 27.732V10.275C0 4.609 4.67 0 10.41 0h32.154c5.74 0 10.41 4.609 10.41 10.275v13.763c.017.103.026.209.026.316v19.632a2.01 2.01 0 0 1-1.105 1.79zM48.92 24.701a2.015 2.015 0 0 1-.026-.321V10.275c0-3.445-2.839-6.248-6.33-6.248H10.41c-3.49 0-6.33 2.803-6.33 6.248v17.457c0 3.445 2.84 6.248 6.33 6.248h29.155c.423 0 .837.129 1.181.372l8.174 5.733V24.701zm-10.038.986l-3.883-3.833-.747.737c-.747.59-1.344 1.032-1.942 1.622a9.355 9.355 0 0 1-5.824 2.063 9.358 9.358 0 0 1-5.825-2.063c-.747-.443-1.195-1.032-1.941-1.622l-.747-.59-3.883 3.98c-.598.737-1.942.737-2.689 0-.448-.294-.597-.884-.597-1.326 0-.442.299-1.032.597-1.327l3.884-3.832-6.572-5.749c-.747-.59-.896-1.622-.448-2.506.448-.885 1.643-1.179 2.539-.737l.149.147c0 .148.15.148.299.295l10.305 8.992c.598.589 1.046 1.032 1.643 1.474 1.045.737 2.091 1.179 3.286 1.179h.298c1.195 0 2.241-.442 3.286-1.179.448-.442 1.045-.885 1.643-1.474l10.454-8.992c0-.147.15-.147.299-.295.448-.147.747-.295 1.045-.295.598 0 1.345.295 1.643.885.448.884.299 1.916-.746 2.358l-6.572 5.749 3.734 3.685c.448.295.597.885.597 1.327 0 .442-.298 1.032-.597 1.327-.597.737-1.942.737-2.688 0z"/>
</svg>
