<svg xmlns="http://www.w3.org/2000/svg" width="234" height="203">
    <defs>
        <linearGradient id="a" x1="0%" x2="85.717%" y1="0%" y2="51.504%">
            <stop offset="0%" stop-color="#32C2F1"/>
            <stop offset="100%" stop-color="#81F9D0"/>
        </linearGradient>
    </defs>
    <path fill="#FC8F46" fill-rule="evenodd" d="M9.767 65.081c-2.304-5.629-1.362-13.086 3.748-16.389 3.68-2.379 8.396-2.068 12.775-2.254 4.38-.187 9.368-1.401 11.329-5.318 2.092-4.18-.319-9.121-.396-13.794-.118-7.172 5.64-13.473 12.393-15.907 6.753-2.434 14.24-1.696 21.239-.101 7.423 1.692 14.966 4.328 22.463 3.002 5.747-1.017 10.807-4.267 15.797-7.292 4.991-3.025 10.325-5.965 16.156-6.241 5.83-.276 12.238 2.948 13.695 8.595.512 1.985.386 4.082.78 6.094 1.399 7.139 8.935 11.466 16.112 12.688 7.177 1.223 14.608.314 21.749 1.734 7.14 1.42 14.497 6.246 15.3 13.475.398 3.585-.883 7.146-.941 10.752-.142 8.843 6.948 16.134 14.415 20.883 7.468 4.749 15.982 8.239 21.88 14.834 5.898 6.595 7.955 17.926 1.362 23.827-5.776 5.169-15.583 4.066-20.77 9.825-4.688 5.203-3.269 13.422-.448 19.83 2.821 6.408 6.843 12.733 6.545 19.727-.451 10.62-11.175 18.44-21.752 19.582-10.577 1.142-20.985-2.637-31.042-6.103-10.056-3.467-20.773-6.716-31.181-4.513-16.605 3.516-27.499 19.649-43.038 26.475-10.249 4.502-22.021 4.645-32.956 2.24-4.223-.928-8.344-2.215-12.384-3.743-9.565-3.617-13.827-14.818-9.066-23.862.606-1.153 1.029-2.372 1.161-3.696.407-4.075-2.2-7.92-5.428-10.444-3.229-2.524-7.09-4.087-10.594-6.212-9.808-5.949-16.621-16.582-17.923-27.972-1.302-11.389 2.937-23.283 11.15-31.288 3.641-3.55 10.022-7.939 8.658-13.866-1.219-5.295-8.592-9.204-10.788-14.568z" opacity=".302"/>
    <path fill="url(#a)" d="M9.767 65.081c-2.304-5.629-1.362-13.086 3.748-16.389 3.68-2.379 8.396-2.068 12.775-2.254 4.38-.187 9.368-1.401 11.329-5.318 2.092-4.18-.319-9.121-.396-13.794-.118-7.172 5.64-13.473 12.393-15.907 6.753-2.434 14.24-1.696 21.239-.101 7.423 1.692 14.966 4.328 22.463 3.002 5.747-1.017 10.807-4.267 15.797-7.292 4.991-3.025 10.325-5.965 16.156-6.241 5.83-.276 12.238 2.948 13.695 8.595.512 1.985.386 4.082.78 6.094 1.399 7.139 8.935 11.466 16.112 12.688 7.177 1.223 14.608.314 21.749 1.734 7.14 1.42 14.497 6.246 15.3 13.475.398 3.585-.883 7.146-.941 10.752-.142 8.843 6.948 16.134 14.415 20.883 7.468 4.749 15.982 8.239 21.88 14.834 5.898 6.595 7.955 17.926 1.362 23.827-5.776 5.169-15.583 4.066-20.77 9.825-4.688 5.203-3.269 13.422-.448 19.83 2.821 6.408 6.843 12.733 6.545 19.727-.451 10.62-11.175 18.44-21.752 19.582-10.577 1.142-20.985-2.637-31.042-6.103-10.056-3.467-20.773-6.716-31.181-4.513-16.605 3.516-27.499 19.649-43.038 26.475-10.249 4.502-22.021 4.645-32.956 2.24-4.223-.928-8.344-2.215-12.384-3.743-9.565-3.617-13.827-14.818-9.066-23.862.606-1.153 1.029-2.372 1.161-3.696.407-4.075-2.2-7.92-5.428-10.444-3.229-2.524-7.09-4.087-10.594-6.212-9.808-5.949-16.621-16.582-17.923-27.972-1.302-11.389 2.937-23.283 11.15-31.288 3.641-3.55 10.022-7.939 8.658-13.866-1.219-5.295-8.592-9.204-10.788-14.568z"/>
</svg>
