<svg xmlns="http://www.w3.org/2000/svg" width="202" height="133">
    <path fill="#33363B" fill-rule="evenodd" d="M201.98 65.044l.002.005c0 .005-.003.01-.002.015-.477 14.827-11.932 26.307-26.48 26.307-2.851 0-5.532-.456-8.022-1.267-.774 1.192-2.247 3.961-3.682 6.662-1.682 3.164-3.266 6.142-4.189 7.515.308.562.497 1.201.497 1.903 0 2.424-1.997 4.323-4.546 4.323-1.947 0-3.244-1.801-3.535-3.71-1.854-.629-3.641-1.408-5.37-2.171-1.442-.635-2.804-1.235-4.209-1.755-.045-.017-.076-.052-.118-.073-.764.899-1.882 1.41-2.99 1.41-1.158 0-2.256-.563-3.057-1.419-.054.043-.095.099-.159.134-2.262 1.239-4.67 2.318-6.999 3.362a148.797 148.797 0 0 0-4.535 2.103c.094.338.151.695.151 1.075 0 1.383-1.178 4.416-4.681 4.416-2.313 0-3.992-1.792-3.992-4.261 0-1.032.321-2.038.904-2.832.782-1.066 2.018-1.351 2.424-1.444 1.299-.301 2.789.128 3.87 1.05 1.614-.799 3.276-1.548 4.888-2.271 2.286-1.024 4.651-2.084 6.829-3.278.061-.034.129-.038.193-.06a4.05 4.05 0 0 1-.141-1.006c0-.828.27-1.624.78-2.304.671-.895 1.568-1.154 2.223-1.343l.236-.069c.31-.095.634-.144.964-.144 1.677 0 4.039 1.318 4.039 4.246 0 .168-.03.319-.047.477.014.005.028.002.042.007 1.472.545 2.932 1.188 4.343 1.81 1.52.67 3.085 1.352 4.67 1.919.265-.642.682-1.173 1.27-1.526a4.625 4.625 0 0 1 2.374-.649c.707 0 1.352.166 1.924.437.9-1.431 2.456-4.359 3.85-6.984 1.364-2.566 2.658-5 3.516-6.409-10.292-4.478-16.701-15.336-16.701-25.642 0-13.623 10.986-25.21 24.351-26.127.009-.001.016-.007.026-.008.011-.001.021.004.032.003a24.909 24.909 0 0 1 1.645-.061c.862 0 1.738.046 2.601.137.283.03.554.056.818.081 1.096.104 2.13.203 3.35.521 1.076.28 2.107.629 3.115 1.009.023.007.047.003.07.013.019.008.032.024.051.033 10.686 4.071 17.43 13.519 17.43 24.9 0 .315-.013.627-.023.94zm-81.661 42.564c-.134 0-.266.015-.393.044-.542.125-.864.291-1.044.536a2.424 2.424 0 0 0-.444 1.43c0 .872.424 1.89 1.618 1.89 2.135 0 2.307-2.025 2.307-2.045 0-1.21-1.187-1.855-2.044-1.855zm18.915-9.319a.931.931 0 0 0-.267.038l-.274.081c-.503.145-.797.24-.983.487a1.423 1.423 0 0 0-.305.882c0 1.001.992 2.059 1.931 2.059.406 0 1.564-.307 1.564-1.673 0-1.794-1.649-1.874-1.666-1.874zm16.691 6.284c-.408 0-.818.11-1.153.311-.291.175-.439.545-.439 1.101 0 1.065.618 2.151 1.225 2.151 1.259 0 2.172-.821 2.172-1.952 0-1.107-.935-1.611-1.805-1.611zm16.012-64.633c-11.653 1.365-21.05 11.644-21.05 23.663 0 12.265 9.89 25.397 24.613 25.397 12.776 0 22.932-9.752 24.026-22.591-2.48.174-4.961.344-7.444.512-5.535.374-11.257.761-16.857 1.213-.033.002-.064.004-.096.004a1.187 1.187 0 0 1-1.185-1.133c-.355-7.952-.979-16.358-2.007-27.065zm8.8.503c-1.035-.27-1.934-.355-2.976-.455-.271-.025-.55-.052-.841-.083a22.61 22.61 0 0 0-2.352-.123c-.088 0-.174.005-.261.006.678 7.072 1.178 13.136 1.544 18.742 1.962-5.529 4.167-11.331 6.665-17.551a28.465 28.465 0 0 0-1.779-.536zm4.001 1.368c-3.324 8.278-6.121 15.8-8.528 22.937l.048.925c5.223-.412 10.524-.77 15.664-1.118 2.569-.174 5.137-.349 7.704-.53-.03-9.961-5.745-18.306-14.888-22.214zm-29.758-7.819c-4.839 0-9.983-3.664-9.983-10.455 0-4.847 3.014-10.48 8.6-11.376a12.893 12.893 0 0 1 2.036-.161c6.296 0 10.364 4.302 10.364 10.959 0 5.424-4.12 11.033-11.017 11.033zm.653-19.865c-.576 0-1.152.046-1.712.136-4.444.711-6.841 5.309-6.841 9.274 0 6.11 4.725 8.328 7.9 8.328 5.593 0 8.934-4.528 8.934-8.906 0-5.53-3.096-8.832-8.281-8.832zm3.785 14.634c-.382 0-.75-.215-.932-.589a4.188 4.188 0 0 0-.591-.857 7.658 7.658 0 0 1-1.397.473c-.115.029-.213.052-.286.076-.109.037-.22.055-.329.055-.437 0-.843-.282-.988-.728a1.068 1.068 0 0 1 .659-1.345c.115-.039.27-.08.453-.125 1.357-.336 2.046-.73 2.046-1.955 0-.645-.154-.803-.782-.803-.524 0-1.121.275-1.754.566-.768.354-1.638.755-2.608.755-1.403 0-2.856-.882-2.856-2.359 0-.63.512-1.629 1.385-2.55-.032-.051-.07-.106-.099-.153-.13-.209-.208-.331-.322-.419a1.078 1.078 0 0 1-.209-1.489c.346-.47.999-.565 1.458-.213.415.318.645.683.816.958a6.527 6.527 0 0 1 2.008-.789 1.045 1.045 0 0 1 1.225.834 1.063 1.063 0 0 1-.817 1.252c-1.867.381-3.128 2.05-3.344 2.586.083.067.387.214.755.214.523 0 1.119-.274 1.751-.566.768-.353 1.64-.755 2.611-.755 1.767 0 2.865 1.124 2.865 2.931 0 .953-.262 1.655-.632 2.207.33.392.636.821.845 1.249a1.074 1.074 0 0 1-.466 1.427 1.02 1.02 0 0 1-.465.112zm-27.87 1.904a1.363 1.363 0 0 1-2.093.043l-.337-.389c-2.182-2.512-4.656-5.36-6.421-6.752a1.361 1.361 0 0 1 .744-2.426c2.336-.174 4.511-.289 6.592-.359a20.886 20.886 0 0 1-.118-2.305l.002-.824c0-8.879-5.283-14.179-14.133-14.179-5.089 0-10.104 2.126-13.413 5.687a1.354 1.354 0 0 1-1.402.363c1.193.608 1.893 1.792 1.893 3.403 0 3.136-2.75 5.061-4.721 5.061-1.546 0-4.936-1.128-4.936-4.479 0-2.198 1.342-4.041 3.34-4.586a1.367 1.367 0 0 1 1.113.18c.198-.007.39-.009.585-.019.231-.011.461-.021.692-.021.684 0 1.285.129 1.809.352-.103-.054-.21-.1-.299-.183a1.359 1.359 0 0 1-.072-1.923C104.19 3.202 109.95.751 115.784.751c10.398 0 16.858 6.477 16.858 16.902l-.002.824c0 .725.015 1.493.12 2.242.479-.006.963-.015 1.432-.015.966 0 1.931.012 2.895.038a1.363 1.363 0 0 1 .974 2.275 163.9 163.9 0 0 0-6.513 7.648zm-32.613-18.88c-.186 0-.373.01-.56.019-.48.023-.986.061-1.37-.162-.741.337-1.075 1.151-1.075 1.867 0 1.57 2.189 1.757 2.211 1.757.481 0 1.996-.704 1.996-2.339 0-.854-.303-1.142-1.202-1.142zm27.847 11.864c1.174 1.207 2.422 2.62 3.664 4.046a167.036 167.036 0 0 1 3.604-4.269c-2.286.004-4.686.077-7.268.223zm-17.262 3.306a126.12 126.12 0 0 1 .942 15.201c0 .721-.017 1.442-.031 2.163 2.7-.052 5.402-.107 8.053-.167l.201-.005c4.883-.11 9.932-.224 14.898-.279.835 0 1.512.622 1.564 1.448.016.234.026.468.037.701l.027.56c.376 6.547.426 13.061.45 20.288.026 7.208.052 14.619.542 21.844.027.414-.11.816-.385 1.128a1.56 1.56 0 0 1-1.07.523l-.241.014c-3.735.223-7.595.454-11.342.454l-.405-.002c-.83-.007-2.809-.02-4.411-.02-9.804 0-19.738.329-29.344.648-5.332.177-10.824.36-16.426.487a1.55 1.55 0 0 1-1.537-1.465c-.747-13.906-1.052-28.051-1.348-41.73l-.081-3.761a1.55 1.55 0 0 1 1.693-1.576c4.122.384 8.41.655 13.027.829-.119-1.853-.24-3.706-.371-5.562-.237-3.34-.482-6.795-.647-10.183a1.366 1.366 0 0 1 .359-.989c.248-.268.593-.426.958-.438 7.526-.242 15.191-.669 23.431-1.304.74-.059 1.368.47 1.457 1.193zm23.375 58.211l-.081-2.17c-.2-5.302-.234-10.651-.253-16.12-.019-5.392-.049-10.255-.215-15.17l-.066-1.927-1.445 1.278c-3.782 3.349-7.723 6.695-11.198 9.647a1395.852 1395.852 0 0 0-5.043 4.302l-.674.578.563.686c6.107 7.434 13.79 14.665 16.809 17.429l1.603 1.467zM77.63 88.708c3.753-.106 7.504-.225 11.252-.349 9.648-.32 19.609-.651 29.467-.651 1.503 0 3.337.013 4.253.019l.56.004c1.597 0 3.342-.045 5.495-.142l2.19-.098-1.618-1.478c-3.04-2.778-10.789-10.063-17.063-17.68l-.594-.721-.704.614a323.683 323.683 0 0 0-6.846 6.111c-.287.265-.66.411-1.052.411-.397 0-.775-.15-1.064-.423a852.303 852.303 0 0 0-6.573-6.138l-.69-.638-.614.712c-5.904 6.832-11.917 13.35-17.091 18.923l-1.471 1.586 2.163-.062zm-4.855-40.985l.045 2.099c.234 10.863.505 22.427 1.012 33.881l.096 2.17 1.477-1.593c5.25-5.66 10.867-11.777 16.378-18.158l.575-.666-.649-.595c-5.925-5.431-11.933-10.841-17.1-15.486l-1.834-1.652zm3.771-.773l1.922 1.728c8.14 7.32 16.094 14.497 23.904 21.831l.612.574.621-.563c4.583-4.155 9.365-8.218 13.99-12.148l.104-.089c3.686-3.13 7.497-6.368 11.2-9.648l1.84-1.631-2.46.044c-3.241.058-6.482.127-9.722.2l-.111.003c-6.869.155-13.973.315-20.954.315-2.819 0-5.469-.033-8.033-.086-1.209.027-2.408.043-3.631.083-.246 0-.467-.085-.667-.2a271.514 271.514 0 0 1-6.034-.266l-2.581-.147zm11.908-17.304l.13.123c.811.779 1.648 1.584 2.526 2.318 1.671 1.399 3.41 2.656 5.092 3.873l.849.615a258.506 258.506 0 0 1 8.371-7.891 525.53 525.53 0 0 1-16.968.962zm18.727 1.124a254.087 254.087 0 0 0-9.031 8.553 1.36 1.36 0 0 1-1.772.133c-.587-.433-1.179-.86-1.773-1.291-1.721-1.244-3.5-2.53-5.246-3.991-.948-.794-1.82-1.632-2.663-2.442-.168-.161-.329-.311-.494-.469.144 2.419.31 4.848.478 7.222.138 1.95.273 3.899.397 5.845 3.276.093 6.724.139 10.415.139 1.795 0 3.607-.033 5.415-.052 1.607-.066 3.215-.146 4.813-.26.011-.667.017-1.334.017-2.001 0-3.72-.194-7.538-.556-11.386zm-51.05 5.806c-7.997 0-13.369-7.015-13.369-13.568 0-8.704 6.41-13.905 12.606-13.905.728 0 1.46.065 2.176.193 2.446.436 5.263 1.151 7.61 3.144 2.782 2.363 3.774 6.838 3.774 10.24 0 7.922-5.502 13.896-12.797 13.896zm7.258-22.062c-1.847-1.569-4.131-2.147-6.323-2.538a9.674 9.674 0 0 0-1.698-.15c-6.815 0-9.881 6.539-9.881 11.182 0 5.238 4.276 10.846 10.644 10.846 5.836 0 10.072-4.7 10.072-11.174 0-2.875-.87-6.515-2.814-8.166zm-3.905 12.237c.083.414.24.788.439 1.261l.201.488a1.361 1.361 0 1 1-2.53 1.012l-.184-.446c-.105-.249-.21-.505-.307-.772-.996.429-2.079.685-3.149.685a7.16 7.16 0 0 1-1.648-.189 1.361 1.361 0 0 1 .628-2.649c2.16.507 5.291-.887 5.291-2.946 0-.282 0-.807-1.835-.807-1.026 0-2.702.266-3.262.368a1.337 1.337 0 0 1-.245.022c-1.292 0-2.116-1.366-2.116-2.306 0-.903.718-2.104 1.823-3.139a1.319 1.319 0 0 1-.213-.686c-.009-.05-.11-.226-.175-.341-.17-.298-.402-.706-.508-1.239a1.362 1.362 0 0 1 2.671-.532c.021.1.106.25.205.424.122.214.265.477.373.788.832-.377 1.726-.613 2.628-.613.127 0 .255.004.385.013.751.051 1.318.7 1.268 1.45a1.36 1.36 0 0 1-1.452 1.266c-1.562-.095-3.127 1.128-3.867 2.015.756-.105 1.715-.212 2.485-.212 4.115 0 4.56 2.467 4.56 3.529 0 1.376-.586 2.561-1.488 3.503.004.019.018.033.022.053zM46.978 45.87c0 5.297-3.233 9.078-8.256 9.966.039.592.073 1.235.073 1.898 0 8.848-6.685 17.806-19.463 17.806-5.267 0-10.219-1.715-13.943-4.828-3.376-2.824-5.393-6.542-5.393-9.948 0-.24.005-.479.008-.714.005-.216.008-.43.008-.639 0-9.6 7.158-19.531 19.136-19.531 3.192 0 6.434.735 9.259 2.079 1.295-2.818 3.834-4.941 6.888-5.464a10.81 10.81 0 0 1 1.816-.156c4.784 0 9.867 3.341 9.867 9.531zM19.332 73.29c2.41 0 4.821-.44 7.052-1.278.001-.213.004-.428.008-.643.005-.236.009-.472.009-.706 0-2.967-1.086-3.171-2.888-3.51-1.699-.319-4.267-.802-4.269-4.756-.3.05-.606.084-.924.084a4.02 4.02 0 0 1-.596-.047c-.543 3.102-2.628 3.779-4.323 4.323-1.813.583-3.245 1.043-3.762 4.138 2.634 1.446 5.895 2.395 9.693 2.395zm3.595-19.189c0-1.295-.641-2.684-.985-3.065-.785-.872-1.401-1.3-2.058-1.432a3.605 3.605 0 0 0-.691-.068c-2.674 0-4.748 2.94-4.748 5.468 0 3.142 2.333 5.227 3.875 5.227 2.716 0 4.607-3.231 4.607-6.13zm4.774-9.978c-2.586-1.284-5.59-1.992-8.553-1.992-10.568 0-16.883 8.786-16.883 17.28 0 .222-.004.449-.008.679a37.53 37.53 0 0 0-.008.674c0 2.838 1.926 6.276 5.367 8.835.934-3.64 3.317-4.413 5.095-4.984 1.687-.542 2.617-.841 2.85-2.935.003-.033.023-.059.029-.091-1.883-1.237-3.398-3.657-3.398-6.585 0-3.644 2.994-7.719 7.001-7.719.376 0 .757.038 1.131.112 1.483.297 2.538 1.296 3.293 2.133.768.853 1.563 2.796 1.563 4.571 0 2.891-1.411 5.919-3.71 7.418.007.054.031.102.031.157l-.004.717c0 2.091.762 2.234 2.433 2.548 1.881.354 4.724.889 4.724 5.722 0 .109-.003.22-.004.33 4.564-2.476 7.893-6.93 7.893-13.259 0-.583-.03-1.151-.065-1.699-.035 0-.067.004-.102.004-4.2 0-8.897-4.212-8.897-9.85 0-.705.082-1.395.222-2.066zm9.41-5.533c-.475 0-.958.041-1.436.123-3.333.571-5.944 3.854-5.944 7.476 0 4.28 3.572 7.599 6.645 7.599 5.072 0 8.35-3.108 8.35-7.918 0-4.728-3.924-7.28-7.615-7.28zm3.522 8.017c-.702.165-1.412.266-2.12.336.028.753.059 1.507.059 2.26a1.126 1.126 0 0 1-2.253 0c0-.698-.03-1.405-.055-2.11l-.028.001c-.82.04-1.668.082-2.488.173a1.127 1.127 0 0 1-1.244-.994 1.126 1.126 0 0 1 .995-1.243 41.657 41.657 0 0 1 2.664-.185c-.033-.562-.062-1.127-.097-1.681a1.126 1.126 0 0 1 1.054-1.193 1.114 1.114 0 0 1 1.194 1.052c.035.548.064 1.11.096 1.666a13.741 13.741 0 0 0 1.707-.272 1.125 1.125 0 0 1 .516 2.19zm-.682 31.215a23.838 23.838 0 0 1 3.55-.276c9.506 0 17.24 6.668 17.24 14.865 0 11.29-8.549 18.278-16.469 18.278-9.698 0-18.205-8.05-18.205-17.227 0-7.592 6.099-14.462 13.884-15.64zm4.321 30.145c6.609 0 13.744-5.948 13.744-15.556 0-6.696-6.511-12.142-14.515-12.142-1.009 0-2.067.082-3.142.244-6.378.966-11.567 6.775-11.567 12.949 0 7.591 7.379 14.505 15.48 14.505zm-11.68-9.896c-.976 0-2.049-1.071-2.049-2.047 0-1.02.557-1.578.857-1.877.476-.475 1.297-.516 1.816-.099.369.17.935.448 1.281 1.138.135.268.205.559.205.858 0 1.099-.966 2.027-2.11 2.027zm.528-2.588a.987.987 0 0 0-.518-.135l.666.666c-.002-.291-.11-.485-.148-.531zm8.926-11.093a1.366 1.366 0 0 1 1.506 1.202c.321 2.896.433 5.524.55 8.307l.058 1.36.202-.011c1.342-.076 2.608-.147 3.838-.525a1.36 1.36 0 0 1 1.703.901 1.36 1.36 0 0 1-.901 1.701c-1.546.476-3.041.56-4.487.641-.508.029-1.017.057-1.526.104a1.364 1.364 0 0 1-1.486-1.288c-.046-.939-.086-1.858-.124-2.768-.115-2.735-.224-5.318-.536-8.121a1.36 1.36 0 0 1 1.203-1.503zm2.921 18.189c.734.141 1.256.781 1.256 1.598a2.2 2.2 0 0 1-2.22 2.23c-1.079 0-1.864-.8-1.864-1.903 0-.661.303-1.283.926-1.904a1.364 1.364 0 0 1 1.902-.021zm8.394-9.581c.252-.232.614-.392.957-.392 1.206 0 2.049.842 2.049 2.047 0 .597-.385 1.105-.921 1.288-.216.201-.633.566-1.266.566-1.006 0-1.757-.986-1.757-1.868 0-.862.608-1.366.868-1.581l.07-.06zm1.643 1.655l.132.133a.875.875 0 0 0 .012-.147.792.792 0 0 0-.144-.482v.496zm-.686.676v-.676h-.676c.001.296.379.675.676.676zm19.951 8.076a6.646 6.646 0 0 1 1.604-.195c3.736 0 6.341 2.841 6.341 5.392 0 3.397-3.901 6.264-6.351 6.264-3.45 0-5.768-2.294-5.768-5.706 0-2.775 1.716-5.142 4.174-5.755zm1.594 8.738c1.109 0 3.626-1.815 3.626-3.541 0-1.063-1.443-2.669-3.616-2.669-.324 0-.641.038-.943.113-1.385.346-2.11 1.828-2.11 3.114 0 .896.296 2.983 3.043 2.983zm44.176 9.36c.614-.03 1.227-.059 1.838-.086 1.746-.08 3.551-.163 5.291-.313a1.2 1.2 0 0 1 .913.316c.246.23.383.553.376.889-.005.218-.006.435-.006.651 0 1.628.107 3.296.211 4.91.075 1.161.153 2.362.191 3.556a1.186 1.186 0 0 1-1.131 1.223l-2.647.126c-1.619.079-3.234.157-4.854.222l-.048.001a1.188 1.188 0 0 1-1.187-1.161 455.154 455.154 0 0 1-.074-9.149c0-.632.496-1.153 1.127-1.185zm1.298 9.073c1.208-.052 2.414-.111 3.622-.169l1.473-.071c-.039-.775-.089-1.554-.138-2.314-.094-1.455-.19-2.954-.212-4.456-1.371.095-2.751.158-4.096.219l-.699.033c.003 2.442.016 4.616.05 6.758zm13.758-16.23l7.764-.189c.648 0 1.166.477 1.212 1.097.275 3.688.374 7.409.469 11.007.038 1.451.077 2.904.126 4.358a1.185 1.185 0 0 1-1.132 1.225l-.231.011c-1.584.071-3.223.145-4.847.145a44.75 44.75 0 0 1-1.906-.038 1.187 1.187 0 0 1-1.133-1.088 509.67 509.67 0 0 0-1.473-15.212 1.187 1.187 0 0 1 1.151-1.316zm2.601 15.277c1.506.024 3.045-.029 4.56-.095a868.522 868.522 0 0 1-.089-3.204c-.085-3.203-.172-6.502-.384-9.769l-5.338.13c.48 4.394.891 8.649 1.251 12.938zm12.992-10.925a89.887 89.887 0 0 1 2.383-.025l1.826.003c.861 0 1.724-.005 2.582-.031a1.187 1.187 0 0 1 1.215 1.059c.398 3.696.467 7.356.482 10.761a1.187 1.187 0 0 1-1.155 1.19c-1.597.044-3.217.044-4.783.044l-1.769.002a1.185 1.185 0 0 1-1.185-1.129c-.091-1.911-.247-3.864-.398-5.752a213.036 213.036 0 0 1-.352-4.869 1.185 1.185 0 0 1 1.154-1.253zm1.564 5.932c.123 1.54.249 3.121.342 4.698l.601-.001c1.201 0 2.408 0 3.6-.018-.024-2.662-.099-5.458-.354-8.27-.514.006-1.029.008-1.544.008l-1.826-.003c-.364 0-.727.001-1.091.004.082 1.2.178 2.407.272 3.582zm14.401-12.86c2.255-.376 4.546-.587 6.761-.79.596-.055 1.194-.11 1.789-.168a1.188 1.188 0 0 1 1.29 1.011c.531 3.677.828 7.421 1.115 11.042.153 1.933.31 3.931.503 5.893a1.186 1.186 0 0 1-1.064 1.295c-2.529.252-5.868.553-9.298.639a1.187 1.187 0 0 1-1.184-1.118c-.08-1.42-.165-2.84-.249-4.26-.239-4.038-.485-8.214-.654-12.326a1.188 1.188 0 0 1 .991-1.218zm2.033 13.404l.183 3.11c2.423-.095 4.778-.288 6.768-.476-.146-1.596-.272-3.198-.396-4.756-.254-3.213-.516-6.525-.943-9.772l-.667.061c-1.828.168-3.708.341-5.552.607.165 3.75.389 7.545.607 11.226z"/>
</svg>
