<svg xmlns="http://www.w3.org/2000/svg" width="233" height="202">
    <defs>
        <linearGradient id="a" x1="0%" x2="85.717%" y1="0%" y2="51.504%">
            <stop offset="0%" stop-color="#32C2F1"/>
            <stop offset="100%" stop-color="#81F9D0"/>
        </linearGradient>
    </defs>
    <path fill="#FC8F46" fill-rule="evenodd" d="M9.241 64.453c-2.303-5.643-1.362-13.119 3.744-16.432 3.677-2.385 8.389-2.072 12.765-2.259 4.376-.187 9.36-1.405 11.319-5.332 2.091-4.191-.319-9.145-.396-13.83-.117-7.19 5.635-13.507 12.383-15.947 6.747-2.44 14.228-1.701 21.221-.102 7.417 1.697 14.953 4.34 22.444 3.01 5.742-1.02 10.798-4.278 15.784-7.311 4.986-3.032 10.317-5.98 16.142-6.257 5.826-.277 12.228 2.956 13.684 8.617.512 1.991.385 4.093.779 6.11 1.398 7.157 8.928 11.496 16.099 12.721 7.171 1.226 14.596.315 21.73 1.738 7.135 1.424 14.486 6.262 15.288 13.511.397 3.593-.883 7.163-.941 10.779-.142 8.866 6.942 16.175 14.404 20.937 7.461 4.761 15.968 8.259 21.861 14.872 5.893 6.612 7.948 17.972 1.361 23.888-5.771 5.182-15.57 4.077-20.753 9.85-4.684 5.217-3.266 13.457-.447 19.881 2.818 6.425 6.837 12.766 6.54 19.779-.451 10.647-11.167 18.487-21.735 19.632-10.567 1.144-20.967-2.644-31.015-6.119-10.049-3.476-20.756-6.734-31.155-4.525-16.592 3.525-27.476 19.7-43.002 26.543-10.241 4.514-22.003 4.657-32.928 2.247-4.22-.931-8.338-2.222-12.374-3.753-9.557-3.627-13.816-14.856-9.059-23.924.606-1.155 1.029-2.378 1.161-3.705.407-4.086-2.199-7.941-5.424-10.471-3.226-2.531-7.084-4.098-10.585-6.228-9.8-5.965-16.607-16.625-17.908-28.044-1.301-11.419 2.934-23.343 11.14-31.369 3.639-3.559 10.014-7.959 8.651-13.902-1.217-5.308-8.585-9.228-10.778-14.605z" opacity=".302"/>
    <path fill="url(#a)" d="M9.241 64.453c-2.303-5.643-1.362-13.119 3.744-16.432 3.677-2.385 8.389-2.072 12.765-2.259 4.376-.187 9.36-1.405 11.319-5.332 2.091-4.191-.319-9.145-.396-13.83-.117-7.19 5.635-13.507 12.383-15.947 6.747-2.44 14.228-1.701 21.221-.102 7.417 1.697 14.953 4.34 22.444 3.01 5.742-1.02 10.798-4.278 15.784-7.311 4.986-3.032 10.317-5.98 16.142-6.257 5.826-.277 12.228 2.956 13.684 8.617.512 1.991.385 4.093.779 6.11 1.398 7.157 8.928 11.496 16.099 12.721 7.171 1.226 14.596.315 21.73 1.738 7.135 1.424 14.486 6.262 15.288 13.511.397 3.593-.883 7.163-.941 10.779-.142 8.866 6.942 16.175 14.404 20.937 7.461 4.761 15.968 8.259 21.861 14.872 5.893 6.612 7.948 17.972 1.361 23.888-5.771 5.182-15.57 4.077-20.753 9.85-4.684 5.217-3.266 13.457-.447 19.881 2.818 6.425 6.837 12.766 6.54 19.779-.451 10.647-11.167 18.487-21.735 19.632-10.567 1.144-20.967-2.644-31.015-6.119-10.049-3.476-20.756-6.734-31.155-4.525-16.592 3.525-27.476 19.7-43.002 26.543-10.241 4.514-22.003 4.657-32.928 2.247-4.22-.931-8.338-2.222-12.374-3.753-9.557-3.627-13.816-14.856-9.059-23.924.606-1.155 1.029-2.378 1.161-3.705.407-4.086-2.199-7.941-5.424-10.471-3.226-2.531-7.084-4.098-10.585-6.228-9.8-5.965-16.607-16.625-17.908-28.044-1.301-11.419 2.934-23.343 11.14-31.369 3.639-3.559 10.014-7.959 8.651-13.902-1.217-5.308-8.585-9.228-10.778-14.605z"/>
</svg>
